PathFileType	4	(X/Y/Z)	..\data\2014014\dynamic\2014014_C5_04.trc
DataRate	CameraRate	NumFrames	NumMarkers	Units	OrigDataRate	OrigDataStartFrame	OrigNumFrames
100.000000	100.000000	4	52	mm	100.000000	117	157
Frame#	Time	L_IAS			L_IPS			R_IPS			R_IAS			L_FTC			L_FLE			L_FME			L_FAX			L_TTC			L_FAL			L_TAM			L_FCC			L_FM1			L_FM2			L_FM5			R_FTC			R_FLE			R_FME			R_FAX			R_TTC			R_FAL			R_TAM			R_FCC			R_FM1			R_FM2			R_FM5			CV7			TV10			SXS			SJN			L_SIA			L_SRS			L_SAA			L_SAE			L_HLE			L_HME			L_UOA			L_RSP			L_UHE			L_HM2			L_HM5			R_SIA			R_SRS			R_SAA			R_SAE			R_HLE			R_HME			R_UOA			R_RSP			R_UHE			R_HM2			R_HM5			
		X1	Y1	Z1	X2	Y2	Z2	X3	Y3	Z3	X4	Y4	Z4	X5	Y5	Z5	X6	Y6	Z6	X7	Y7	Z7	X8	Y8	Z8	X9	Y9	Z9	X10	Y10	Z10	X11	Y11	Z11	X12	Y12	Z12	X13	Y13	Z13	X14	Y14	Z14	X15	Y15	Z15	X16	Y16	Z16	X17	Y17	Z17	X18	Y18	Z18	X19	Y19	Z19	X20	Y20	Z20	X21	Y21	Z21	X22	Y22	Z22	X23	Y23	Z23	X24	Y24	Z24	X25	Y25	Z25	X26	Y26	Z26	X27	Y27	Z27	X28	Y28	Z28	X29	Y29	Z29	X30	Y30	Z30	X31	Y31	Z31	X32	Y32	Z32	X33	Y33	Z33	X34	Y34	Z34	X35	Y35	Z35	X36	Y36	Z36	X37	Y37	Z37	X38	Y38	Z38	X39	Y39	Z39	X40	Y40	Z40	X41	Y41	Z41	X42	Y42	Z42	X43	Y43	Z43	X44	Y44	Z44	X45	Y45	Z45	X46	Y46	Z46	X47	Y47	Z47	X48	Y48	Z48	X49	Y49	Z49	X50	Y50	Z50	X51	Y51	Z51	X52	Y52	Z52	

118	1.17	404.3857727050782	991.5251464843752	113.920768737793	191.5027465820312	998.1846923828127	185.2912139892579	190.8900756835938	983.4149169921877	287.5628356933594	388.5404663085938	962.4860839843752	365.5221252441407	342.5196533203126	901.3887939453127	37.14273452758794	440.9289855957032	497.1040954589845	96.56813049316415	424.3142395019532	490.1234130859376	230.6245574951173	432.1076049804689	431.8893127441407	93.13532257080085	493.6916809082032	431.3314819335939	153.9248962402345	448.3262329101564	59.75463485717775	132.0093078613282	461.3420410156251	93.36380767822267	229.5316467285157	390.471160888672	17.53358268737793	186.470672607422	589.8120117187501	13.22414588928223	229.9908142089845	606.0744628906251	31.61517524719239	172.8036193847657	554.3677978515626	12.58295726776123	114.3470611572267	314.4059143066406	854.7752075195315	419.5486755371095	271.6952514648438	451.9411010742189	401.413543701172	318.7742614746094	437.3950805664064	275.9488830566407	220.3213043212891	426.5727539062501	403.4258117675782	270.3124694824219	373.0755310058594	360.2492980957032	-80.25010681152349	221.3667755126954	354.6353149414063	-30.56866264343266	207.7088317871094	265.7238159179688	-122.5257415771485	239.9454956054688	287.9438476562501	-56.17423629760747	61.55562973022462	261.8652038574219	-41.26689147949223	66.67055511474611	318.4926147460938	-75.26702880859381	89.0256805419922	374.0857238769532	250.8319549560547	1514.202392578125	233.5918884277345	152.1827697753906	1274.112915039063	240.2992706298829	425.2743835449219	1237.935180664063	239.5830841064454	378.4193115234375	1422.647216796875	243.7877197265626	130.1244201660156	1301.276123046875	135.7818756103516	175.1449890136719	1443.6259765625	130.6383972167969	213.6874084472657	1443.26904296875	66.9982070922852	259.7430114746094	1438.33544921875	37.77204132080082	206.118881225586	1107.109130859375	-56.1328659057617	176.6302947998047	1097.631958007813	36.49665832519534	167.8401031494141	1091.968505859375	-22.45520401000975	241.1348724365235	836.4931640625002	-25.89911460876463	171.1472473144532	854.812683105469	-77.29923248291016	249.5594787597657	747.8067626953126	-44.44337463378904	145.6447143554688	773.8458251953127	-83.44145965576172	133.201187133789	1299.974731445313	353.6336669921876	186.5152282714843	1444.214111328125	363.4667358398438	226.2845458984375	1433.363037109375	430.0974731445314	273.6839904785156	1431.561157226563	450.9231567382814	257.6851806640625	1102.238403320313	551.2615966796876	233.4682769775391	1080.086181640625	451.0890197753908	217.3853607177734	1073.9072265625	520.3164672851564	399.5098571777344	875.1573486328127	501.2986755371095	336.0846862792969	861.7653808593752	568.0689086914064	452.4813232421876	795.6553344726565	526.4855957031251	347.6903076171875	766.2150878906251	567.3796997070314	
119	1.18	417.7393493652345	993.637634277344	112.726547241211	204.7837219238282	999.919372558594	185.1341857910157	204.3003387451172	984.5819091796877	287.2864379882813	402.1102905273438	963.8201904296877	364.5822753906251	354.8591308593751	903.1558837890627	36.16378402709966	448.3037109375001	497.5472106933595	96.28624725341805	430.6856689453126	490.531219482422	230.1259155273439	438.2949218750001	432.312225341797	92.80731201171882	499.5599670410157	430.8712463378907	153.955551147461	448.417449951172	60.25018692016603	132.3805236816407	461.6766967773439	93.66481781005861	229.8665008544923	390.486297607422	17.62598419189453	186.4009399414063	589.6956787109376	13.19583511352539	230.0547943115236	606.3878784179689	31.91601371765137	172.7591705322267	554.3367309570314	13.33752822875977	114.0890121459962	329.7308959960938	855.3619384765627	418.426239013672	299.9490966796875	451.8212280273439	403.1411743164064	347.37353515625	437.7755126953126	277.2503967285157	249.1756439208984	427.294158935547	405.1612243652345	298.4187927246094	373.7647399902344	361.1052856445314	-55.47687149047857	229.7987823486329	355.2784729003907	-6.459812164306675	214.8538970947266	266.1728820800782	-97.84070587158209	249.0868072509766	288.6337280273438	-35.7090225219727	67.65286254882814	264.7896728515626	-20.42383003234868	72.91493988037111	320.7716674804688	-53.30888366699224	98.18526458740237	376.0475158691407	264.78466796875	1515.979736328125	232.6018676757813	165.8964233398438	1275.898071289063	239.8158111572266	438.9516906738282	1239.500854492188	239.1296997070314	392.0520935058594	1424.376342773438	242.9773712158204	144.2141876220703	1302.8388671875	134.6466369628907	188.8081665039062	1445.224853515625	129.8026428222657	227.8072357177735	1444.788818359375	66.02303314208989	273.9060668945313	1439.704345703125	36.95495605468754	224.419662475586	1107.70556640625	-57.77212905883788	194.4308166503907	1097.629272460938	34.58515167236331	186.1899566650391	1091.75634765625	-24.4962863922119	264.4198303222657	837.8174438476565	-27.56171226501462	194.3386230468751	854.835388183594	-79.11706542968749	274.5939331054688	749.3858642578126	-46.48242568969724	170.5069580078125	773.4124755859377	-85.6810302734375	146.6953582763672	1302.1943359375	353.4494323730469	200.3652496337891	1446.221435546875	362.8163146972657	240.2117462158203	1435.452758789063	429.4238586425783	287.6204528808594	1433.594360351563	450.2153320312502	270.0255737304688	1103.831787109375	549.4174194335939	246.0246124267578	1082.434936523438	449.1010742187502	229.5635681152344	1076.283813476563	518.1856689453126	407.7235107421876	874.1467285156252	500.1318969726564	343.4720764160156	861.920593261719	566.5230102539064	458.8561401367188	793.5109863281252	525.4409790039064	353.2215881347656	766.1272583007814	565.6774902343751	
120	1.19	430.9543457031251	995.6066894531252	111.6496200561524	217.9247283935547	1001.707153320313	184.8867950439454	217.5178985595703	986.038757324219	286.8863830566407	415.4268798828126	965.5097656250002	363.8739624023439	367.0034179687501	904.7112426757815	35.32025909423833	454.7281494140626	497.773406982422	96.11531829833993	436.3664550781251	490.7789611816407	229.8134613037111	443.508026123047	432.5600585937501	92.61435699462898	504.692352294922	430.2834777832032	153.9692535400391	448.3041076660157	60.66389846801759	132.7577209472657	461.8591613769532	93.92611694335939	230.1821594238282	390.3782653808595	17.63116264343262	186.4007263183595	589.4896240234376	13.34788227081299	230.1321716308595	606.4575195312501	32.31856536865235	172.7425537109376	554.2102661132814	14.01376914978028	113.9391555786134	344.5827331542969	856.4716796875002	417.4754333496095	328.0929260253906	452.5166625976564	404.5210876464845	375.7717590332031	439.2407836914064	278.1173095703126	278.0199890136719	428.6344299316407	406.5399780273439	326.771728515625	375.2281188964844	361.5963745117189	-29.53937530517583	236.9911804199219	355.9337463378907	18.85922622680661	221.225326538086	266.6120910644532	-72.24279785156254	256.3938903808594	289.3725891113282	-11.77896499633792	73.11549377441408	267.6777648925782	3.691175937652549	78.90759277343751	323.0988159179688	-28.51473426818853	106.286865234375	377.9851989746094	278.6071166992188	1517.897705078125	231.7797241210938	179.4642791748047	1277.810668945313	239.2983398437501	452.4200134277344	1241.125610351563	238.8167572021486	405.5387573242188	1426.17138671875	242.3478393554689	158.2445983886719	1304.514770507813	133.4253997802735	202.3286895751953	1447.01171875	129.0580596923829	241.8616943359376	1446.50244140625	65.14484405517582	288.0181579589844	1441.255615234375	36.25546646118168	242.8011627197266	1108.523193359375	-59.30651855468749	212.3255615234376	1097.794555664063	32.69701766967777	204.6205444335938	1091.732055664063	-26.4861373901367	288.0985107421876	839.5076293945315	-29.08747863769528	217.8936920166016	855.1148681640627	-80.79944610595702	300.1172485351563	751.4046020507814	-48.42986679077146	195.8928527832032	773.2691650390627	-87.83534240722655	159.9682922363281	1304.507568359375	353.2261657714844	214.0098266601562	1448.316162109375	362.2261047363282	253.8843994140625	1437.602172851563	428.8303527832033	301.2964477539062	1435.688354492188	449.6121826171877	282.3825378417969	1105.442993164063	547.6173706054689	258.4241943359375	1084.821899414063	447.2729492187502	241.7202606201172	1078.697143554688	516.1898803710939	415.7876281738282	873.262878417969	498.9058227539064	350.8278198242188	862.2453613281252	565.0026245117189	465.0492248535157	791.4876708984377	524.2227172851565	358.6863403320312	766.2310180664064	563.9857788085939	
121	1.2	444.0641479492189	997.4095458984377	110.6964111328126	230.9739074707032	1003.557800292969	184.5367126464844	230.595443725586	987.787780761719	286.3766174316407	428.5643005371094	967.553649902344	363.3663635253907	379.0163574218751	906.0765380859377	34.61425399780279	460.3231201171876	497.8222961425782	96.03948974609384	441.5196228027345	490.9197387695314	229.6788177490236	447.8826293945314	432.6713867187501	92.54673004150398	509.2068481445314	429.5955200195314	153.9405517578126	448.0480957031251	60.98337173461915	133.120819091797	461.9392700195314	94.12938690185548	230.4688110351564	390.1651306152345	17.58783149719239	186.4508209228516	589.2327880859376	13.57548427581787	230.2149200439455	606.3510742187501	32.71639633178712	172.746307373047	554.0200805664064	14.53908634185791	113.8777770996095	359.0169067382812	858.1069335937502	416.6952514648439	356.0211486816406	454.0319213867189	405.5690002441408	403.8745117187501	441.7645568847657	278.6044006347657	306.7058410644531	430.5777282714845	407.580291748047	355.26025390625	377.4366760253907	361.7947998046876	-2.563133001327559	242.7231140136719	356.6179199218751	45.30214691162107	226.6157379150391	267.0629272460938	-45.85700988769536	261.6948242187501	290.1669616699219	15.4635782241821	77.71717071533205	270.3981933593751	30.9284687042236	84.37759399414064	325.3638000488282	-1.055741786956834	113.005729675293	379.8110351562501	292.2947692871094	1519.936157226563	231.1249542236329	192.9181823730469	1279.81103515625	238.7290954589845	465.7097778320313	1242.822021484375	238.6170349121095	418.8953247070313	1428.032958984375	241.8879699707032	172.2394409179688	1306.282592773438	132.0959777832032	215.7200469970703	1448.961303710938	128.4020080566407	255.8394012451172	1448.392822265625	64.3600234985352	302.0722656250001	1442.989868164063	35.66695785522465	261.2459716796876	1109.57421875	-60.72892761230467	230.2977752685547	1098.152954101563	30.84886741638187	223.1163482666016	1091.916015625	-28.40570831298826	312.1267700195313	841.5906982421877	-30.4508190155029	241.7603149414063	855.6811523437502	-82.32102203369139	326.0826721191407	753.8959350585939	-50.25370025634763	221.7564849853516	773.459899902344	-89.87463378906249	173.0497131347656	1306.861206054688	352.9276733398438	227.4500122070312	1450.469848632813	361.6757812500001	267.3002319335938	1439.787475585938	428.2978820800783	314.7080688476562	1437.826049804688	449.099578857422	294.73779296875	1107.06201171875	545.8569946289064	270.6548767089844	1087.229614257813	445.6030273437502	253.8326873779297	1081.134033203125	514.3323974609376	423.7145690917969	872.517761230469	497.6265869140627	358.1969909667969	862.7515869140627	563.5261230468751	471.1099548339844	789.6197509765627	522.8418579101565	364.1473083496094	766.5374755859376	562.3417968750001	
